<?xml version="1.0" encoding="UTF-8"?>
<svg width="720" height="320" viewBox="0 0 72 32" xmlns="http://www.w3.org/2000/svg">
  <desc>Vehicle Vitals stacked V mark (export asset)</desc>
  <g fill="none" stroke-linecap="round">
    <!-- Outer V -->
    <path d="M12 4 L32 30 L52 4" stroke="#2b2b2b" stroke-width="2.6" />
    <!-- Middle V -->
    <path d="M14 5 L32 26 L50 5" stroke="#2b2b2b" stroke-opacity="0.75" stroke-width="2.1" />
    <!-- Inner V accent -->
    <path d="M24 8 L32 20 L40 8" stroke="#8b1e2b" stroke-width="3.0" />
  </g>
  <!-- Hex accents (filled) -->
  <polygon points="15.031,3.5 12,5.5 8.969,3.5 8.969,0.5 12,-1.5 15.031,0.5" fill="#2b2b2b" transform="translate(0,4)"/>
  <polygon points="15.031,3.5 12,5.5 8.969,3.5 8.969,0.5 12,-1.5 15.031,0.5" fill="#2b2b2b" transform="translate(40,4)"/>
  <polygon points="15.031,3.5 12,5.5 8.969,3.5 8.969,0.5 12,-1.5 15.031,0.5" fill="#8b1e2b" transform="translate(20,28)"/>
</svg>